<svg xmlns="http://www.w3.org/2000/svg" viewBox="0 0 259 259"><defs><style>.cls-1{fill:#212121;}.cls-2{fill:#f72323;}</style></defs><g id="Layer_2" data-name="Layer 2"><g id="Layer_1-2" data-name="Layer 1"><path class="cls-1" d="M129.5,0A129.5,129.5,0,1,0,259,129.5,129.5,129.5,0,0,0,129.5,0Zm-5,248.89A119.48,119.48,0,0,1,10.11,134.5H124.5Zm0-124.39H10.11A119.48,119.48,0,0,1,124.5,10.11Zm10-114.39A119.48,119.48,0,0,1,248.89,124.5H134.5ZM214,214a118.65,118.65,0,0,1-79.5,34.89V134.5H248.89A118.65,118.65,0,0,1,214,214Z"/><path class="cls-2" d="M124.5,134.5V248.89A119.48,119.48,0,0,1,10.11,134.5Z"/><path class="cls-2" d="M248.89,134.5A119.48,119.48,0,0,1,134.5,248.89V134.5Z"/><path class="cls-2" d="M248.89,124.5H134.5V10.11A119.48,119.48,0,0,1,248.89,124.5Z"/><path class="cls-2" d="M124.5,10.11V124.5H10.11A119.48,119.48,0,0,1,124.5,10.11Z"/></g></g></svg>