<svg xmlns="http://www.w3.org/2000/svg" viewBox="0 0 259 259"><defs><style>.cls-1{fill:#212121;}.cls-2{fill:#f72323;}</style></defs><g id="Layer_2" data-name="Layer 2"><g id="Layer_1-2" data-name="Layer 1"><path class="cls-1" d="M129.5,0A129.5,129.5,0,1,0,259,129.5,129.5,129.5,0,0,0,129.5,0ZM10,129.5A118.88,118.88,0,0,1,23.56,74.11L119.5,129.5,23.56,184.89A118.88,118.88,0,0,1,10,129.5ZM124.5,248.89A118.65,118.65,0,0,1,45,214a120.57,120.57,0,0,1-16.43-20.45l95.93-55.39Zm0-128L28.57,65.45A120.57,120.57,0,0,1,45,45a118.65,118.65,0,0,1,79.5-34.89Zm10-110.73A118.65,118.65,0,0,1,214,45a120.57,120.57,0,0,1,16.43,20.45L134.5,120.84ZM214,214a118.65,118.65,0,0,1-79.5,34.89V138.16l95.93,55.39A120.57,120.57,0,0,1,214,214Zm-74.5-84.5,95.94-55.39a119.91,119.91,0,0,1,0,110.78Z"/><path class="cls-2" d="M119.5,129.5,23.56,184.89a119.91,119.91,0,0,1,0-110.78Z"/><path class="cls-2" d="M124.5,138.16V248.89A118.65,118.65,0,0,1,45,214a120.57,120.57,0,0,1-16.43-20.45Z"/><path class="cls-2" d="M230.43,193.55A120.57,120.57,0,0,1,214,214a118.65,118.65,0,0,1-79.5,34.89V138.16Z"/><path class="cls-2" d="M249,129.5a118.88,118.88,0,0,1-13.56,55.39L139.5,129.5l95.94-55.39A118.88,118.88,0,0,1,249,129.5Z"/><path class="cls-2" d="M230.43,65.45,134.5,120.84V10.11A118.65,118.65,0,0,1,214,45,120.57,120.57,0,0,1,230.43,65.45Z"/><path class="cls-2" d="M124.5,10.11V120.84L28.57,65.45A120.57,120.57,0,0,1,45,45,118.65,118.65,0,0,1,124.5,10.11Z"/></g></g></svg>