<svg xmlns="http://www.w3.org/2000/svg" viewBox="0 0 259 259"><defs><style>.cls-1{fill:#212121;}.cls-2{fill:#f72323;}</style></defs><g id="Layer_2" data-name="Layer 2"><g id="Layer_1-2" data-name="Layer 1"><path class="cls-1" d="M129.5,0A129.5,129.5,0,1,0,259,129.5,129.5,129.5,0,0,0,129.5,0Zm-88,48.62,75.89,75.88H10.11A118.51,118.51,0,0,1,41.54,48.62ZM10.11,134.5H117.43L41.54,210.39A118.54,118.54,0,0,1,10.11,134.5ZM124.5,248.89a118.54,118.54,0,0,1-75.89-31.43l75.89-75.89Zm0-131.46L48.61,41.55A118.55,118.55,0,0,1,124.5,10.11Zm124.39,7.07H141.57l75.89-75.88A118.57,118.57,0,0,1,248.89,124.5ZM134.5,10.11a118.5,118.5,0,0,1,75.88,31.44L134.5,117.43Zm0,238.78V141.57l75.88,75.89A118.49,118.49,0,0,1,134.5,248.89Zm83-38.5L141.57,134.5H248.89A118.59,118.59,0,0,1,217.46,210.39Z"/><path class="cls-2" d="M117.43,124.5H10.11A118.51,118.51,0,0,1,41.54,48.62Z"/><path class="cls-2" d="M117.43,134.5,41.54,210.39A118.54,118.54,0,0,1,10.11,134.5Z"/><path class="cls-2" d="M124.5,141.57V248.89a118.54,118.54,0,0,1-75.89-31.43Z"/><path class="cls-2" d="M210.38,217.46a118.49,118.49,0,0,1-75.88,31.43V141.57Z"/><path class="cls-2" d="M248.89,134.5a118.59,118.59,0,0,1-31.43,75.89L141.57,134.5Z"/><path class="cls-2" d="M248.89,124.5H141.57l75.89-75.88A118.57,118.57,0,0,1,248.89,124.5Z"/><path class="cls-2" d="M210.38,41.55,134.5,117.43V10.11A118.5,118.5,0,0,1,210.38,41.55Z"/><path class="cls-2" d="M124.5,10.11V117.43L48.61,41.55A118.55,118.55,0,0,1,124.5,10.11Z"/></g></g></svg>